<svg width="24" height="24" viewBox="0 0 24 24" fill="none" xmlns="http://www.w3.org/2000/svg">
<path d="M23.637 14.9019C22.035 21.3361 15.5227 25.2421 9.09825 23.6409C2.67225 22.0509 -1.242 15.5229 0.363 9.10514C1.96125 2.67239 8.47725 -1.24186 14.898 0.359387C21.3278 1.96514 25.242 8.47364 23.637 14.9064V14.9019ZM17.289 10.2894C17.5268 8.69939 16.3118 7.84064 14.6483 7.26239L15.1882 5.10914L13.8713 4.77689L13.3485 6.88664C13.0043 6.79664 12.6458 6.71864 12.2858 6.63689L12.81 4.50764L11.4893 4.17989L10.95 6.34364L10.11 6.14489L8.298 5.69114L7.94625 7.10189C7.94625 7.10189 8.9235 7.32389 8.8995 7.33589C9.43575 7.47314 9.5325 7.81964 9.5175 8.10164L8.04075 14.0229C7.9665 14.1879 7.7985 14.4301 7.428 14.3356C7.44 14.3544 6.46725 14.0979 6.46725 14.0979L5.80725 15.6046L7.518 16.0306L8.44725 16.2729L7.90425 18.4651L9.225 18.7891L9.768 16.6209C10.1273 16.7229 10.4707 16.8121 10.8142 16.8946L10.3073 19.0464L11.6273 19.3786L12.1702 17.1879C14.412 17.6131 16.1003 17.4451 16.8113 15.4141C17.3813 13.7769 16.779 12.8364 15.5963 12.2191C16.4475 12.0234 17.0963 11.4571 17.2755 10.2894H17.289ZM14.277 14.5119C13.875 16.1521 11.121 15.2619 10.227 15.0391L10.9492 12.1411C11.844 12.3714 14.703 12.8124 14.277 14.5119ZM14.688 10.2699C14.316 11.7616 12.027 11.0079 11.2808 10.8196L11.9377 8.17964C12.6795 8.35889 15.0735 8.70239 14.688 10.2654V10.2699Z" fill="white"/>
</svg>
